Coordinates
version=1
nRows=16
nColumns=36
inDegrees=yes

Units are S.I. units (second, meters, Newtons, ...)
If the header above contains a line with 'inDegrees', this indicates whether rotational values are in degrees (yes) or radians (no).

endheader
time	pelvis_tilt	pelvis_list	pelvis_rotation	pelvis_tx	pelvis_ty	pelvis_tz	hip_flexion_r	hip_adduction_r	hip_rotation_r	knee_angle_r	knee_angle_r_beta	ankle_angle_r	subtalar_angle_r	mtp_angle_r	hip_flexion_l	hip_adduction_l	hip_rotation_l	knee_angle_l	knee_angle_l_beta	ankle_angle_l	subtalar_angle_l	mtp_angle_l	lumbar_extension	lumbar_bending	lumbar_rotation	arm_flex_r	arm_add_r	arm_rot_r	elbow_flex_r	pro_sup_r	arm_flex_l	arm_add_l	arm_rot_l	elbow_flex_l	pro_sup_l
      0.00000000	     -0.05769224	     -0.50844728	     -2.72045355	      0.89960264	      0.97267807	      0.09079062	     -0.90273942	      4.15585804	      0.45390237	      0.71102619	      0.01240975	      4.57261481	     -2.28521814	     -6.62582114	     11.28065189	      1.33562952	      3.28560454	     18.11485255	      0.31616382	      6.25552786	     -7.95727534	     -6.62582114	     -2.83106111	      0.07071335	      0.43896408	     48.70912001	      5.28430493	     58.00784477	    113.63986735	     71.12716272	     40.98130704	      7.39754288	     68.13955729	    119.29554958	     76.53631743
      0.01666670	      0.11201083	     -1.60630044	     -3.31734335	      0.90012869	      0.96973608	      0.09000098	     -1.38572011	      5.51113281	      2.16883061	      0.38614420	      0.00673949	      6.12729187	     -2.16266912	     -6.86480892	     10.63238375	      0.29767414	      4.05864993	     16.57535986	      0.28929460	      7.64504336	     -7.43079007	     -6.86480892	     -4.28972172	      1.35849381	      3.50206402	     53.01883093	      0.71171111	     67.02155843	    123.47385197	     91.11657108	     42.15260062	      7.79021250	     65.38927073	    121.63522690	     93.59028723
      0.03333330	     -0.75376676	     -1.71685703	     -3.67885664	      0.89998478	      0.96718369	      0.08989285	     -0.66174987	      5.83742830	      2.32562024	      0.24654938	      0.00430310	      6.17210107	     -2.37497316	     -7.01493821	     10.70949546	     -0.04796766	      3.90401383	     14.03103704	      0.24488779	      6.15039930	     -6.96978304	     -7.01493821	     -3.39197333	      1.56293461	      2.71547094	     53.57264775	      3.38171830	     66.40274138	    122.99484492	     93.85013832	     41.74773437	      6.62065643	     63.23235677	    122.63424906	     99.39940656
      0.05000000	     -1.35768075	     -1.60728867	     -3.54503257	      0.90846236	      0.97119362	      0.09028010	     -0.22140299	      5.80538307	      1.70848029	      0.19031291	      0.00332159	      6.65805383	     -1.94158386	     -7.13574055	     10.49722947	     -0.02223655	      4.37768269	     12.28539044	      0.21442051	      5.76842445	     -6.66132249	     -7.13574055	     -2.25590360	      1.36766650	      1.59255606	     52.58606178	      5.15959367	     66.56428431	    121.85848739	     95.00849239	     41.12935280	      5.20164301	     62.05914988	    123.09229045	    100.31346558
      0.06666670	     -1.91163534	     -1.58118882	     -3.48025404	      0.90844043	      0.97231727	      0.09003261	      0.23977254	      5.89827055	      1.20720617	      0.17169329	      0.00299661	      7.15045147	     -1.39041993	     -7.21936624	     10.67928294	     -0.03057193	      4.46887570	     11.68810009	      0.20399583	      6.03844642	     -6.11685456	     -7.21936624	     -1.35656603	      1.13719605	      1.18295059	     51.51154536	      6.48684960	     67.06450904	    121.23083968	     91.78956716	     41.09545132	      4.90077512	     61.71331436	    123.11986014	     96.24267751
      0.08333330	     -2.72858319	     -1.56471327	     -3.42792283	      0.90911192	      0.96739116	      0.09037286	      1.05950011	      5.97334364	      0.60788309	      0.16817024	      0.00293512	      7.50116369	     -0.74318374	     -7.30274225	     11.36303486	     -0.09282518	      4.50653282	     11.64542717	      0.20325105	      6.49573389	     -5.46259811	     -7.30274225	     -0.25928319	      1.07017891	      0.79318832	     51.11709866	      7.99386186	     67.29559501	    120.42075289	     95.30921246	     40.99319440	      4.84065835	     61.01852147	    123.41359484	     98.37788787
      0.10000000	     -3.40617293	     -1.58052499	     -3.34817615	      0.90969397	      0.96875131	      0.09022360	      1.70396586	      6.06700737	      0.38539097	      0.17126780	      0.00298919	      7.38523379	     -0.75404299	     -7.32252898	     11.98205720	     -0.17494313	      4.51631597	     11.78401193	      0.20566981	      6.88650088	     -4.98325013	     -7.32252898	      0.61284815	      1.02851812	      0.80191831	     50.35393614	      8.58733262	     67.42706824	    120.12826985	     93.76336474	     40.72908385	      4.68224185	     61.17353890	    123.93579792	     96.59192152
      0.11666670	     -3.95408795	     -1.64647789	     -3.20082195	      0.91075886	      0.97099661	      0.09054902	      2.23397562	      6.20131026	      0.00390071	      0.17808660	      0.00310820	      7.13491137	     -0.55542310	     -7.37110878	     12.43962532	     -0.29553303	      4.40368270	     11.84883467	      0.20680118	      7.12525669	     -4.33925937	     -7.37110878	      1.20337119	      1.08777268	      0.67474382	     50.05639734	      8.89812836	     68.11472192	    120.12678437	     89.63344358	     40.58608699	      4.49618780	     61.67129320	    124.14233147	     91.83383479
      0.13333330	     -4.49980671	     -1.68731349	     -3.13773776	      0.91169825	      0.97038850	      0.09054356	      2.76129772	      6.31547808	     -0.20407616	      0.18474482	      0.00322441	      6.68133859	     -0.55137476	     -7.38977839	     12.87331730	     -0.41318503	      4.22857781	     11.81816575	      0.20626590	      7.09052514	     -3.82154056	     -7.38977839	      1.84327541	      1.09464772	      0.84137347	     49.94821842	      9.10081985	     68.68079772	    120.37203726	     88.31275289	     40.53486486	      4.56631332	     62.17562852	    124.42927131	     90.27413765
      0.15000000	     -4.74214579	     -1.70629414	     -3.04266493	      0.91647512	      0.97029718	      0.08805236	      2.93076965	      6.35098768	     -0.34660713	      0.18589860	      0.00324454	      6.34032065	     -0.45465495	     -7.39042134	     12.75859869	     -0.43735149	      4.19492382	     11.38255432	      0.19866305	      6.82648850	     -3.51846241	     -7.39042134	      2.22486227	      1.13566305	      0.87051053	     49.79398075	      9.25556410	     68.96828778	    120.61183996	     88.41749159	     40.33034185	      4.71061770	     62.32980372	    124.48937491	     90.36814455
      0.16666670	     -5.28022446	     -1.68428772	     -3.03479024	      0.91711325	      0.97208005	      0.08809780	      3.45759444	      6.36715921	     -0.41169902	      0.18776028	      0.00327704	      6.11523717	     -0.26446003	     -7.40372517	     12.99431484	     -0.47976294	      3.96581653	     10.95917636	      0.19127371	      6.56542525	     -2.93862411	     -7.40372517	      2.93337690	      1.02977712	      0.86971357	     49.10471599	      9.33126268	     69.28307876	    120.83636249	     87.35416893	     39.96456520	      4.69693847	     62.76061250	    124.73420222	     89.10422647
      0.18333330	     -5.43746856	     -1.64652167	     -3.09730389	      0.92193953	      0.97193872	      0.08549951	      3.53842311	      6.31489663	     -0.33192163	      0.18564891	      0.00324018	      5.81225422	     -0.29018883	     -7.40491676	     12.59086395	     -0.46526231	      3.83094444	     10.19568119	      0.17794821	      6.15590622	     -2.54023123	     -7.40491676	      3.31211402	      0.94109940	      0.78274416	     48.45442617	      9.38448837	     69.41071719	    120.61828159	     87.55652398	     39.76971303	      4.67746790	     62.90809666	    124.80405998	     89.24827888
      0.20000000	     -5.60687927	     -1.62034885	     -3.15227497	      0.92628358	      0.97195834	      0.08290794	      3.62261601	      6.25461203	     -0.20373810	      0.18305330	      0.00319488	      5.59618139	     -0.33815701	     -7.41709887	     12.19674497	     -0.45402295	      3.72689696	      9.48527827	      0.16554934	      5.90045995	     -2.09683720	     -7.41709887	      3.62139047	      0.85704984	      0.54718927	     47.98725560	      9.28945132	     69.34922745	    120.40370090	     86.35810975	     39.74014658	      4.60074298	     63.21291057	    124.93753427	     87.71989570
      0.21666670	     -5.72180485	     -1.57185231	     -3.24979744	      0.93077224	      0.96884903	      0.08123684	      3.66120101	      6.14743749	      0.14828768	      0.18197306	      0.00317603	      5.30279971	     -0.78242991	     -7.44344127	     11.73910762	     -0.40152046	      3.69775495	      8.78844280	      0.15338726	      5.60126715	     -1.92149887	     -7.44344127	      3.98851814	      0.78071370	      0.48795764	     47.96832023	      9.58230652	     68.30433560	    119.81198922	     90.29874718	     39.95320036	      5.01390842	     63.20708865	    124.87280917	     89.34565454
      0.23333330	     -5.77192099	     -1.54575329	     -3.20859990	      0.93082616	      0.97041123	      0.08073142	      3.61461832	      6.04594242	      0.11954442	      0.17905553	      0.00312511	      5.24978627	     -0.70405927	     -7.45292913	     11.30377665	     -0.33418706	      3.76629200	      8.19306238	      0.14299591	      5.37123245	     -1.73492852	     -7.45292913	      4.18538790	      0.68076112	      0.61502105	     48.19670951	      9.58424618	     67.85884981	    119.58194587	     88.02963432	     40.12928700	      4.97609558	     63.36398012	    125.01979740	     87.18276352
      0.25000000	     -5.63257035	     -1.47700140	     -3.23282312	      0.93520008	      0.96917539	      0.07881533	      3.35402409	      5.88329154	      0.30705546	      0.17626841	      0.00307646	      5.31319230	     -0.69445956	     -7.45924400	     10.60138834	     -0.22392376	      3.79961749	      7.51282864	      0.13112360	      5.09716309	     -1.63772910	     -7.45924400	      4.27298514	      0.49149561	      0.37804921	     48.06832579	     10.06088195	     67.34742455	    119.05035491	     86.60940351	     40.34595411	      4.62677350	     62.87850959	    124.85825939	     85.74670005
